<svg xmlns="http://www.w3.org/2000/svg" width="880" height="360" viewBox="0 0 880 360" role="img" aria-labelledby="t d" font-family="'Geist Mono', ui-monospace, SFMono-Regular, Menlo, Consolas, monospace">
<title id="t">RSEM_CALCULATEEXPRESSION: cores used vs. cores reserved</title>
<desc id="d">Average cores used by each of the 45 completed tasks in rnaseq 3.22.0 to 3.27.0, one dot per task, against the 12 CPUs each task reserved. Median 1.04 cores.</desc>
<rect width="880" height="360" rx="8" fill="#141C10"/>
<text x="58.0" y="30.0" font-size="16" fill="#FBFFE1" text-anchor="start" font-weight="600">RSEM_CALCULATEEXPRESSION: cores used vs. cores reserved</text>
<text x="58.0" y="52.0" font-size="13" fill="#D1CF8B" text-anchor="start" font-weight="400">45 completed tasks, rnaseq star_rsem full-size test, releases 3.22.0–3.27.0. One dot per task.</text>
<line x1="58" x2="730.0" y1="316.0" y2="316.0" stroke="#2A3322" stroke-width="1"/>
<text x="50.0" y="320.0" font-size="12" fill="#D1CF8B" text-anchor="end" font-weight="400">0</text>
<line x1="58" x2="730.0" y1="244.6" y2="244.6" stroke="#2A3322" stroke-width="1"/>
<text x="50.0" y="248.6" font-size="12" fill="#D1CF8B" text-anchor="end" font-weight="400">4</text>
<line x1="58" x2="730.0" y1="173.2" y2="173.2" stroke="#2A3322" stroke-width="1"/>
<text x="50.0" y="177.2" font-size="12" fill="#D1CF8B" text-anchor="end" font-weight="400">8</text>
<line x1="58" x2="730.0" y1="101.8" y2="101.8" stroke="#2A3322" stroke-width="1"/>
<text x="50.0" y="105.8" font-size="12" fill="#D1CF8B" text-anchor="end" font-weight="400">12</text>
<line x1="58" x2="730.0" y1="101.8" y2="101.8" stroke="#D1CF8B" stroke-width="1.5"/>
<text x="738.0" y="105.8" font-size="12.5" fill="#FBFFE1" text-anchor="start" font-weight="600">reserved: 12 CPUs</text>
<line x1="58" x2="730.0" y1="297.4" y2="297.4" stroke="#D1CF8B" stroke-width="1.5"/>
<text x="738.0" y="301.4" font-size="12.5" fill="#FBFFE1" text-anchor="start" font-weight="600">median used: 1.04</text>
<circle cx="82.0" cy="300.1" r="4.5" fill="#D1CF8B" stroke="#141C10" stroke-width="2"/>
<circle cx="88.9" cy="298.4" r="4.5" fill="#D1CF8B" stroke="#141C10" stroke-width="2"/>
<circle cx="95.7" cy="297.8" r="4.5" fill="#D1CF8B" stroke="#141C10" stroke-width="2"/>
<circle cx="102.6" cy="297.6" r="4.5" fill="#D1CF8B" stroke="#141C10" stroke-width="2"/>
<circle cx="109.4" cy="297.4" r="4.5" fill="#D1CF8B" stroke="#141C10" stroke-width="2"/>
<circle cx="116.3" cy="297.2" r="4.5" fill="#D1CF8B" stroke="#141C10" stroke-width="2"/>
<circle cx="123.1" cy="296.2" r="4.5" fill="#D1CF8B" stroke="#141C10" stroke-width="2"/>
<circle cx="130.0" cy="294.8" r="4.5" fill="#D1CF8B" stroke="#141C10" stroke-width="2"/>
<text x="106.0" y="334.0" font-size="12" fill="#D1CF8B" text-anchor="middle" font-weight="400">3.22.0</text>
<circle cx="178.0" cy="303.0" r="4.5" fill="#D1CF8B" stroke="#141C10" stroke-width="2"/>
<circle cx="187.6" cy="300.3" r="4.5" fill="#D1CF8B" stroke="#141C10" stroke-width="2"/>
<circle cx="197.2" cy="296.5" r="4.5" fill="#D1CF8B" stroke="#141C10" stroke-width="2"/>
<circle cx="206.8" cy="288.9" r="4.5" fill="#D1CF8B" stroke="#141C10" stroke-width="2"/>
<circle cx="216.4" cy="286.8" r="4.5" fill="#D1CF8B" stroke="#141C10" stroke-width="2"/>
<circle cx="226.0" cy="284.3" r="4.5" fill="#D1CF8B" stroke="#141C10" stroke-width="2"/>
<text x="202.0" y="334.0" font-size="12" fill="#D1CF8B" text-anchor="middle" font-weight="400">3.22.1</text>
<circle cx="274.0" cy="298.4" r="4.5" fill="#D1CF8B" stroke="#141C10" stroke-width="2"/>
<circle cx="280.9" cy="296.0" r="4.5" fill="#D1CF8B" stroke="#141C10" stroke-width="2"/>
<circle cx="287.7" cy="293.0" r="4.5" fill="#D1CF8B" stroke="#141C10" stroke-width="2"/>
<circle cx="294.6" cy="292.6" r="4.5" fill="#D1CF8B" stroke="#141C10" stroke-width="2"/>
<circle cx="301.4" cy="289.6" r="4.5" fill="#D1CF8B" stroke="#141C10" stroke-width="2"/>
<circle cx="308.3" cy="289.4" r="4.5" fill="#D1CF8B" stroke="#141C10" stroke-width="2"/>
<circle cx="315.1" cy="286.9" r="4.5" fill="#D1CF8B" stroke="#141C10" stroke-width="2"/>
<circle cx="322.0" cy="284.2" r="4.5" fill="#D1CF8B" stroke="#141C10" stroke-width="2"/>
<text x="298.0" y="334.0" font-size="12" fill="#D1CF8B" text-anchor="middle" font-weight="400">3.22.2</text>
<circle cx="370.0" cy="305.0" r="4.5" fill="#D1CF8B" stroke="#141C10" stroke-width="2"/>
<circle cx="379.6" cy="300.3" r="4.5" fill="#D1CF8B" stroke="#141C10" stroke-width="2"/>
<circle cx="389.2" cy="298.2" r="4.5" fill="#D1CF8B" stroke="#141C10" stroke-width="2"/>
<circle cx="398.8" cy="297.8" r="4.5" fill="#D1CF8B" stroke="#141C10" stroke-width="2"/>
<circle cx="408.4" cy="297.3" r="4.5" fill="#D1CF8B" stroke="#141C10" stroke-width="2"/>
<circle cx="418.0" cy="296.5" r="4.5" fill="#D1CF8B" stroke="#141C10" stroke-width="2"/>
<text x="394.0" y="334.0" font-size="12" fill="#D1CF8B" text-anchor="middle" font-weight="400">3.23.0</text>
<circle cx="466.0" cy="300.4" r="4.5" fill="#D1CF8B" stroke="#141C10" stroke-width="2"/>
<circle cx="490.0" cy="298.6" r="4.5" fill="#D1CF8B" stroke="#141C10" stroke-width="2"/>
<circle cx="514.0" cy="297.8" r="4.5" fill="#D1CF8B" stroke="#141C10" stroke-width="2"/>
<text x="490.0" y="334.0" font-size="12" fill="#D1CF8B" text-anchor="middle" font-weight="400">3.24.0</text>
<circle cx="562.0" cy="308.0" r="4.5" fill="#D1CF8B" stroke="#141C10" stroke-width="2"/>
<circle cx="571.6" cy="300.3" r="4.5" fill="#D1CF8B" stroke="#141C10" stroke-width="2"/>
<circle cx="581.2" cy="299.3" r="4.5" fill="#D1CF8B" stroke="#141C10" stroke-width="2"/>
<circle cx="590.8" cy="296.6" r="4.5" fill="#D1CF8B" stroke="#141C10" stroke-width="2"/>
<circle cx="600.4" cy="294.9" r="4.5" fill="#D1CF8B" stroke="#141C10" stroke-width="2"/>
<circle cx="610.0" cy="282.9" r="4.5" fill="#D1CF8B" stroke="#141C10" stroke-width="2"/>
<text x="586.0" y="334.0" font-size="12" fill="#D1CF8B" text-anchor="middle" font-weight="400">3.25.0</text>
<circle cx="658.0" cy="311.6" r="4.5" fill="#D1CF8B" stroke="#141C10" stroke-width="2"/>
<circle cx="664.9" cy="302.9" r="4.5" fill="#D1CF8B" stroke="#141C10" stroke-width="2"/>
<circle cx="671.7" cy="300.0" r="4.5" fill="#D1CF8B" stroke="#141C10" stroke-width="2"/>
<circle cx="678.6" cy="299.2" r="4.5" fill="#D1CF8B" stroke="#141C10" stroke-width="2"/>
<circle cx="685.4" cy="299.1" r="4.5" fill="#D1CF8B" stroke="#141C10" stroke-width="2"/>
<circle cx="692.3" cy="291.2" r="4.5" fill="#D1CF8B" stroke="#141C10" stroke-width="2"/>
<circle cx="699.1" cy="284.1" r="4.5" fill="#D1CF8B" stroke="#141C10" stroke-width="2"/>
<circle cx="706.0" cy="224.9" r="4.5" fill="#D1CF8B" stroke="#141C10" stroke-width="2"/>
<text x="682.0" y="334.0" font-size="12" fill="#D1CF8B" text-anchor="middle" font-weight="400">3.27.0</text>
<text x="14.0" y="74.0" font-size="12" fill="#D1CF8B" text-anchor="start" font-weight="400">cores</text>
</svg>
